<?xml version="1.0" encoding="utf-8"?>
<!-- Generator: Adobe Illustrator 15.0.0, SVG Export Plug-In . SVG Version: 6.00 Build 0)  -->
<!DOCTYPE svg PUBLIC "-//W3C//DTD SVG 1.1//EN" "http://www.w3.org/Graphics/SVG/1.1/DTD/svg11.dtd">
<svg version="1.1" id="Layer_1" xmlns="http://www.w3.org/2000/svg" xmlns:xlink="http://www.w3.org/1999/xlink" x="0px" y="0px"
	 width="612px" height="792px" viewBox="0 0 612 792" enable-background="new 0 0 612 792" xml:space="preserve">
<g>
	<g>
		<g>
			<path fill="#E1E2E3" d="M316.02,401.703h-2.168l-0.812-0.812c2.709-2.98,4.334-7.043,4.334-11.377
				c0-9.752-7.855-17.607-17.607-17.607s-17.607,7.855-17.607,17.607s7.855,17.607,17.607,17.607c4.334,0,8.398-1.625,11.377-4.334
				l0.812,0.812v2.166l13.545,13.545l4.064-4.062L316.02,401.703z M299.766,401.703c-6.771,0-12.189-5.418-12.189-12.189
				c0-6.773,5.418-12.191,12.189-12.191c6.773,0,12.189,5.418,12.189,12.191C311.955,396.285,306.539,401.703,299.766,401.703z"/>
		</g>
	</g>
</g>
</svg>
