<?xml version="1.0" encoding="utf-8"?>
<!-- Generator: Adobe Illustrator 24.1.0, SVG Export Plug-In . SVG Version: 6.00 Build 0)  -->
<svg version="1.1" id="Layer_1" xmlns="http://www.w3.org/2000/svg" xmlns:xlink="http://www.w3.org/1999/xlink" x="0px" y="0px"
	 viewBox="0 0 65.8 65.8" style="enable-background:new 0 0 65.8 65.8;" xml:space="preserve">
<style type="text/css">
	.st0{fill:#FFFFFF;}
	.st1{fill:#716F70;}
	.st2{fill:#A6A6A6;}
</style>
<circle class="st0" cx="32.9" cy="32.9" r="31.4"/>
<g>
	<polygon class="st1" points="50.6,42.9 32.9,25.2 15.3,42.9 10.5,38.1 32.9,15.6 55.4,38.1 	"/>
	<path class="st2" d="M32.9,65.8C14.8,65.8,0,51.1,0,32.9C0,14.8,14.8,0,32.9,0c18.2,0,32.9,14.8,32.9,32.9S51.1,65.8,32.9,65.8z
		 M32.9,4.4C17.2,4.4,4.4,17.2,4.4,32.9s12.8,28.5,28.5,28.5s28.5-12.8,28.5-28.5S48.6,4.4,32.9,4.4z"/>
</g>
</svg>
