<?xml version="1.0" encoding="utf-8"?>
<!-- Generator: Adobe Illustrator 24.1.0, SVG Export Plug-In . SVG Version: 6.00 Build 0)  -->
<svg version="1.1" id="Layer_1" xmlns="http://www.w3.org/2000/svg" xmlns:xlink="http://www.w3.org/1999/xlink" x="0px" y="0px"
	 viewBox="0 0 148 72.2" style="enable-background:new 0 0 148 72.2;" xml:space="preserve">
<style type="text/css">
	.st0{fill:#E0E1E3;}
	.st1{fill:#FFFFFF;}
	.st2{fill:#FF002D;}
	.st3{fill:#231F20;}
	.st4{fill:url(#SVGID_1_);}
	.st5{fill:url(#SVGID_2_);}
	.st6{fill:url(#SVGID_3_);}
	.st7{fill:url(#SVGID_4_);}
	.st8{fill:url(#SVGID_5_);}
	.st9{fill:url(#SVGID_6_);}
</style>
<g>
	<polygon class="st0" points="125.6,33.5 116.7,33.5 116.7,72.2 124.7,72.2 145.6,72.2 148.2,63.4 148.2,63.4 125.6,63.4 	"/>
	<path class="st0" d="M98.1,33.5h-1.7l-2.4,8.3L85,72.2h9.2l2.6-8.8h7.1v8.8h8.8V42.3h0l0-8.8L98.1,33.5L98.1,33.5z M103.8,54.6
		h-4.5l2.2-7.6l1.4-4.6h0.9L103.8,54.6L103.8,54.6z"/>
	<polygon class="st0" points="93.6,33.5 42.6,33.5 42.6,13.9 33.8,13.9 33.8,13.9 25.8,40.9 25.8,13.9 17,13.9 17,13.9 -0.1,72.2 
		9.1,72.2 17,45.2 17,72.2 25.8,72.2 33.8,45.2 33.8,48.4 33.8,48.4 33.8,57.3 33.8,57.3 33.8,72.2 39.4,72.2 39.4,72.2 66.1,72.2 
		68.7,63.4 68.7,63.4 42.6,63.4 42.6,57.3 59.1,57.3 59.1,48.4 42.6,48.4 42.6,42.3 72.3,42.3 72.3,72.2 81.1,72.2 81.1,42.3 
		91,42.3 	"/>
	<path class="st0" d="M55.1,31.4c5.6,0,10.1-3.4,10.1-7.7S60.7,16,55.1,16C49.5,16,45,19.4,45,23.7S49.5,31.4,55.1,31.4z M55.1,19.6
		c3.8,0,6.5,2.2,6.5,4.1s-2.7,4.1-6.5,4.1c-3.8,0-6.5-2.2-6.5-4.1S51.3,19.6,55.1,19.6z"/>
	<polygon class="st0" points="112.6,21.2 109.1,24.9 109.1,30.5 112.6,30.5 112.6,21.2 	"/>
	<polygon class="st1" points="106.2,16.8 103.3,16.8 103.3,18.7 	"/>
	<polygon class="st0" points="93.4,20.3 101.7,30.6 103.3,30.6 105.4,30.6 106.9,30.6 106.9,19.9 103.3,20.9 103.3,27 99.4,22.1 
		99.4,22.1 99,21.6 99,21.6 95.1,16.7 93.4,16.7 90.6,16.7 89.9,16.7 89.9,30.5 93.4,30.5 	"/>
	<polygon class="st0" points="70.9,21.2 75.8,30.5 79.2,30.5 84.1,21.2 84.1,30.5 87.6,30.5 87.6,16.7 86.1,16.7 84.1,16.7 
		82.4,16.7 77.5,26.1 72.6,16.7 70.9,16.7 68.9,16.7 67.4,16.7 67.4,30.5 70.9,30.5 	"/>
	<polygon class="st2" points="116.1,15.6 120.9,13.2 115.6,13.8 121.5,0 112.5,13 108.8,8 110.6,14.5 103.2,12.4 109.1,16 
		103.3,19.9 109.1,18.2 109.1,23.4 112.6,19.6 114.3,21.8 114.3,19.1 126.8,23.9 	"/>
	<polygon class="st3" points="125.6,63.4 125.6,51.5 118.2,51.5 118.2,72.2 124.7,72.2 125.7,72.2 126.2,72.2 145.6,72.2 
		148.2,63.4 148.2,63.4 127,63.4 	"/>
	<polygon class="st3" points="105.3,63.4 105.3,72.2 112.6,72.2 112.6,51.5 105.3,51.5 105.3,54.6 103.8,54.6 100.8,54.6 99.3,54.6 
		100.2,51.5 92.5,51.5 86.4,72.2 94.1,72.2 96.7,63.4 98.2,63.4 103.8,63.4 	"/>
	<polygon class="st3" points="7.4,51.5 1.3,72.2 9.1,72.2 15.1,51.5 	"/>
	<polygon class="st3" points="42.6,63.4 42.6,57.3 44.1,57.3 59.1,57.3 59.1,51.5 35.3,51.5 35.3,57.3 35.3,57.3 35.3,72.2 
		39.4,72.2 39.4,72.2 40.9,72.2 40.9,72.2 66.1,72.2 68.7,63.4 68.7,63.4 44.1,63.4 	"/>
	<rect x="73.8" y="51.5" class="st3" width="7.3" height="20.7"/>
	<polygon class="st3" points="25.8,72.2 31.9,51.5 18.5,51.5 18.5,72.2 	"/>
	<g>
		
			<linearGradient id="SVGID_1_" gradientUnits="userSpaceOnUse" x1="99.5314" y1="-720.6244" x2="99.5314" y2="-681.4529" gradientTransform="matrix(1 0 0 -1 0 -645.568)">
			<stop  offset="0" style="stop-color:#FFFFFF"/>
			<stop  offset="1" style="stop-color:#000000"/>
		</linearGradient>
		<polygon class="st4" points="105.3,63.4 105.3,72.2 112.6,72.2 112.6,51.5 105.3,51.5 105.3,54.6 103.8,54.6 100.8,54.6 
			99.3,54.6 100.2,51.5 92.5,51.5 86.4,72.2 94.1,72.2 96.7,63.4 98.2,63.4 103.8,63.4 		"/>
		
			<linearGradient id="SVGID_2_" gradientUnits="userSpaceOnUse" x1="8.2359" y1="-720.6244" x2="8.2359" y2="-681.4529" gradientTransform="matrix(1 0 0 -1 0 -645.568)">
			<stop  offset="0" style="stop-color:#FFFFFF"/>
			<stop  offset="1" style="stop-color:#000000"/>
		</linearGradient>
		<polygon class="st5" points="7.4,51.5 1.3,72.2 9.1,72.2 15.1,51.5 		"/>
		
			<linearGradient id="SVGID_3_" gradientUnits="userSpaceOnUse" x1="51.9689" y1="-720.6244" x2="51.9689" y2="-681.4529" gradientTransform="matrix(1 0 0 -1 0 -645.568)">
			<stop  offset="0" style="stop-color:#FFFFFF"/>
			<stop  offset="1" style="stop-color:#000000"/>
		</linearGradient>
		<polygon class="st6" points="42.6,63.4 42.6,57.3 44.1,57.3 59.1,57.3 59.1,51.5 35.3,51.5 35.3,57.3 35.3,57.3 35.3,72.2 
			39.4,72.2 39.4,72.2 40.9,72.2 40.9,72.2 66.1,72.2 68.7,63.4 68.7,63.4 44.1,63.4 		"/>
		
			<linearGradient id="SVGID_4_" gradientUnits="userSpaceOnUse" x1="77.4444" y1="-720.6244" x2="77.4444" y2="-681.4529" gradientTransform="matrix(1 0 0 -1 0 -645.568)">
			<stop  offset="0" style="stop-color:#FFFFFF"/>
			<stop  offset="1" style="stop-color:#000000"/>
		</linearGradient>
		<rect x="73.8" y="51.5" class="st7" width="7.3" height="20.7"/>
		
			<linearGradient id="SVGID_5_" gradientUnits="userSpaceOnUse" x1="25.1959" y1="-720.6244" x2="25.1959" y2="-681.4519" gradientTransform="matrix(1 0 0 -1 0 -645.568)">
			<stop  offset="0" style="stop-color:#FFFFFF"/>
			<stop  offset="1" style="stop-color:#000000"/>
		</linearGradient>
		<polygon class="st8" points="25.8,72.2 31.9,51.5 18.5,51.5 18.5,72.2 		"/>
		
			<linearGradient id="SVGID_6_" gradientUnits="userSpaceOnUse" x1="133.1924" y1="-720.6244" x2="133.1924" y2="-681.4529" gradientTransform="matrix(1 0 0 -1 0 -645.568)">
			<stop  offset="0" style="stop-color:#FFFFFF"/>
			<stop  offset="1" style="stop-color:#000000"/>
		</linearGradient>
		<polygon class="st9" points="125.6,63.4 125.6,51.5 118.2,51.5 118.2,72.2 124.7,72.2 125.7,72.2 126.2,72.2 145.6,72.2 
			148.2,63.4 148.2,63.4 127,63.4 		"/>
	</g>
</g>
</svg>
