<?xml version="1.0" encoding="utf-8"?>
<!-- Generator: Adobe Illustrator 24.1.0, SVG Export Plug-In . SVG Version: 6.00 Build 0)  -->
<svg version="1.1" id="Layer_1" xmlns="http://www.w3.org/2000/svg" xmlns:xlink="http://www.w3.org/1999/xlink" x="0px" y="0px"
	 viewBox="0 0 400 381.5" style="enable-background:new 0 0 400 381.5;" xml:space="preserve">
<style type="text/css">
	.st0{fill:#716F70;}
</style>
<path class="st0" d="M173.3,18.3c114.9,0,208.4,93.5,208.4,208.4c0,61.4-26.7,116.6-69,154.8h26c38-40.5,61.3-95,61.3-154.8
	c0-125-101.7-226.6-226.7-226.6C103.8,0.1,41.5,31.6-0.1,80.9v30.2C37.3,55.2,101.1,18.3,173.3,18.3z"/>
<path class="st0" d="M111.8,329.6c1.3,1.4,2.9,2.5,4.5,3.3c2.2,1.1,4.6,1.6,7.1,1.6h22.8l-4.7-4.7l-9.8-9.7l-15.8-15.8
	c-5,2.7-8.5,7.8-8.7,13.6c0,0.8,0,1.5,0.1,2.3C107.7,323.6,109.3,326.9,111.8,329.6z"/>
<path class="st0" d="M223.5,302.1h-15.4c-0.3,0-0.5,0-0.8,0h-28l38.8,38.8c2.9,2.9,4.5,6.7,4.5,10.8c0,4.1-1.6,7.9-4.5,10.8
	l-6.3,6.3c-0.5,3.7,0.2,6.5,4.4,11.2c5.9-5.6,15.5-16.5,15.5-23.8v-45.9C231.7,305.8,228,302.1,223.5,302.1z"/>
<path class="st0" d="M91.8,332.8h13.6c-3-3.7-4.7-8.1-5.1-12.8h-8.5c-4.8,0-9.1-2.4-11.5-6.5c-2.4-4.1-2.5-9-0.3-13.2
	c2.7-5,7.6-7.6,12.9-10.4c2.1-1.1,4.3-2.3,6.5-3.8c-2.4-4.6-3.2-9.9-2.3-15.1l-0.3-0.1c-1.5,3-4.7,4.8-10,7.7
	c-6,3.2-13.5,7.3-18,15.6c-4.5,8.2-4.3,17.9,0.5,25.9C74.1,328.1,82.5,332.8,91.8,332.8z"/>
<path class="st0" d="M213.7,357c2.7-3.3,2.6-8.1-0.5-11.1l-0.1-0.1c-0.2-0.2-47.8-47.8-50.6-50.6h44.8c13.4,0,24.4-10.9,24.4-24.4
	v-92.4c0-10.8-5.3-21-14.1-27.3l-1.5-1v-8.6l1.5-1c10.2-7,16.3-18.4,16.3-30.7V95.1c0-18.5-11.5-37.1-37.1-37.1
	c-2.7,0-5.3,0.2-7.8,0.7c0-0.3,0-4.4,0-4.2c-0.2,0-17.4,0-17.2,0c-16.6,0-30.1,13.5-30.1,30.1v1.1h-7.2V119h7.2v3.4
	c0,16.7,13.5,30.2,30.1,30.2h0.2h5.2c-7.9,6.4-12.3,15.7-12.3,25.8v44.3c-10.1,0-34.9,0-57.7,0v-32.1l-24.8-24.8
	c7.8-1.3,25-4.2,32.2-6l12.4-3.1l-12.7-1.5c-8-0.9-25-1.2-32.8-1.3l13.8-23.3l-21,17.1c-1.2-8-4-25.3-6-30.4l-3-7.3l-1.5,7.7
	c-1,5.3-1.4,22.8-1.5,30.8l-23.3-13.8L56.5,156c-5.9,1.5-17.3,4.4-22,5.8l-9.6,2.9l9.9,1.7c5.3,0.9,16.3,1.2,22.3,1.3l-13.8,23.3
	l21-17.1c1.3,7.7,4.2,24.3,5.9,30.2l3.5,12.7l1-13.2c0.4-5,0.9-17.6,1.2-26.2l18.4,18.4v28.1c-9.6,3.3-16.6,12.4-16.6,23.1
	c0,13.4,10.9,24.5,24.5,24.5h2c-1.1,5.8,0.4,11.5,4.8,15.9c0.6,0.6,8.3,8.3,58,57.9c1.1,0.9,6.3,5.6,7,12.7
	c0.5,4.9-1.3,9.7-5.2,14.2c-3.7,4.2-6.9,7-9.5,9.3h29.9C199.3,371.4,213.2,357.5,213.7,357z M176.2,139.8c-0.4,0-4.7,0-4.4,0
	c-9.5,0-17.4-7.7-17.4-17.4V122V94.3c4,0,7.3,0,10.9,0v-8.5c-0.2,0-10.4,0-10.9,0v-1.1c0-9.5,7.7-17.4,17.4-17.4h4.4V139.8z
	 M102.2,258.7c-6.4,0-11.7-5.2-11.7-11.7c0-6.4,5.2-11.7,11.7-11.7c45.3,0,35.4,0,81.9,0V177c0-8,6.6-14.5,14.6-14.2
	c7.6,0.2,13.8,6.9,13.8,15v66.8c0,7.9-6.4,14.2-14.2,14.2C163.3,258.7,135.7,258.7,102.2,258.7z"/>
</svg>
